%TF.GenerationSoftware,Altium Limited,Altium Designer,24.6.1 (21)*%
G04 Layer_Color=65535*
%FSLAX45Y45*%
%MOMM*%
%TF.SameCoordinates,AC9FF34B-BC34-43DD-B331-A16B571A9E15*%
%TF.FilePolarity,Positive*%
%TF.FileFunction,Legend,Top*%
%TF.Part,Single*%
G01*
G75*
%TA.AperFunction,NonConductor*%
%ADD34C,0.25400*%
%ADD35C,0.25000*%
%ADD36C,0.50800*%
%ADD37C,0.20000*%
%ADD38C,0.40000*%
%ADD39C,0.15240*%
%ADD40R,0.77780X2.60000*%
D34*
X1174100Y2819200D02*
X2284100D01*
Y909200D02*
Y2819200D01*
X64100Y909200D02*
X2284100D01*
X64100D02*
Y2819200D01*
X1174100D01*
X109800Y5886100D02*
Y5963600D01*
Y5753600D02*
Y5821100D01*
Y5963600D02*
Y6138600D01*
X497300D01*
Y5753600D02*
Y6138600D01*
X109800Y5753600D02*
X497300D01*
X109800Y5821100D02*
Y5886100D01*
X1174100Y5511600D02*
X2284100D01*
Y3601600D02*
Y5511600D01*
X64100Y3601600D02*
X2284100D01*
X64100D02*
Y5511600D01*
X1174100D01*
X3225800Y5778500D02*
Y5892800D01*
X2870200D02*
X3225800D01*
X2870200Y5689600D02*
Y5892800D01*
Y5689600D02*
X3225800D01*
Y5778500D01*
X0Y0D02*
X1943100D01*
X4000500D02*
X5943600D01*
X1943100D02*
X4000500D01*
X0Y1879600D02*
Y2590800D01*
Y0D02*
Y1066800D01*
Y3403600D02*
Y6299200D01*
Y1066800D02*
Y1879600D01*
X5393000Y5886100D02*
Y5963600D01*
Y5753600D02*
Y5821100D01*
Y5963600D02*
Y6138600D01*
X5780500D01*
Y5753600D02*
Y6138600D01*
X5393000Y5753600D02*
X5780500D01*
X5393000Y5821100D02*
Y5886100D01*
X5943600Y0D02*
Y6299200D01*
X0Y2590800D02*
Y3403600D01*
Y6299200D02*
X5943600D01*
X5443800Y348900D02*
Y426400D01*
Y216400D02*
Y283900D01*
Y426400D02*
Y601400D01*
X5831300D01*
Y216400D02*
Y601400D01*
X5443800Y216400D02*
X5831300D01*
X5443800Y283900D02*
Y348900D01*
X160600D02*
Y426400D01*
Y216400D02*
Y283900D01*
Y426400D02*
Y601400D01*
X548100D01*
Y216400D02*
Y601400D01*
X160600Y216400D02*
X548100D01*
X160600Y283900D02*
Y348900D01*
X2501900Y5808941D02*
X2535756D01*
X2518828D01*
Y5910508D01*
X2501900Y5893580D01*
X2586539D02*
X2603467Y5910508D01*
X2637323D01*
X2654251Y5893580D01*
Y5825868D01*
X2637323Y5808941D01*
X2603467D01*
X2586539Y5825868D01*
Y5893580D01*
X2688107D02*
X2705034Y5910508D01*
X2738890D01*
X2755818Y5893580D01*
Y5825868D01*
X2738890Y5808941D01*
X2705034D01*
X2688107Y5825868D01*
Y5893580D01*
X2501900Y5626100D02*
Y5693811D01*
X2518828D01*
X2535756Y5676883D01*
Y5626100D01*
Y5676883D01*
X2552683Y5693811D01*
X2569611Y5676883D01*
Y5626100D01*
X2603467D02*
Y5693811D01*
X2637323Y5727667D01*
X2671179Y5693811D01*
Y5626100D01*
Y5676883D01*
X2603467D01*
X3124200Y783919D02*
Y682352D01*
Y733135D01*
X3191911D01*
Y783919D01*
Y682352D01*
X3276551D02*
X3242695D01*
X3225767Y699280D01*
Y733135D01*
X3242695Y750063D01*
X3276551D01*
X3293479Y733135D01*
Y716208D01*
X3225767D01*
X3327334Y682352D02*
Y750063D01*
X3378118D01*
X3395046Y733135D01*
Y682352D01*
X3428902Y750063D02*
Y682352D01*
Y716208D01*
X3445830Y733135D01*
X3462757Y750063D01*
X3479685D01*
X3530469D02*
Y699280D01*
X3547397Y682352D01*
X3598180D01*
Y665424D01*
X3581252Y648496D01*
X3564325D01*
X3598180Y682352D02*
Y750063D01*
X3733603Y783919D02*
X3801315D01*
X3767459D01*
Y682352D01*
X3835171Y750063D02*
Y682352D01*
Y716208D01*
X3852098Y733135D01*
X3869026Y750063D01*
X3885954D01*
X3953666D02*
X3987521D01*
X4004449Y733135D01*
Y682352D01*
X3953666D01*
X3936738Y699280D01*
X3953666Y716208D01*
X4004449D01*
X4038305Y682352D02*
Y750063D01*
X4089089D01*
X4106016Y733135D01*
Y682352D01*
X3124200Y567223D02*
Y465656D01*
X3191911D01*
X3225767D02*
X3259623D01*
X3242695D01*
Y533367D01*
X3225767D01*
X3310407Y465656D02*
Y567223D01*
X3361190D01*
X3378118Y550295D01*
Y516439D01*
X3361190Y499511D01*
X3310407D01*
X3428902Y465656D02*
X3462757D01*
X3479685Y482583D01*
Y516439D01*
X3462757Y533367D01*
X3428902D01*
X3411974Y516439D01*
Y482583D01*
X3428902Y465656D01*
X3615108Y567223D02*
Y482583D01*
X3632036Y465656D01*
X3665892D01*
X3682820Y482583D01*
Y567223D01*
X3784387Y550295D02*
X3767459Y567223D01*
X3733603D01*
X3716676Y550295D01*
Y533367D01*
X3733603Y516439D01*
X3767459D01*
X3784387Y499511D01*
Y482583D01*
X3767459Y465656D01*
X3733603D01*
X3716676Y482583D01*
X3818243Y567223D02*
Y465656D01*
X3869026D01*
X3885954Y482583D01*
Y499511D01*
X3869026Y516439D01*
X3818243D01*
X3869026D01*
X3885954Y533367D01*
Y550295D01*
X3869026Y567223D01*
X3818243D01*
X4089089Y550295D02*
X4072161Y567223D01*
X4038305D01*
X4021377Y550295D01*
Y482583D01*
X4038305Y465656D01*
X4072161D01*
X4089089Y482583D01*
X4122945Y567223D02*
Y465656D01*
Y516439D01*
X4139872Y533367D01*
X4173728D01*
X4190656Y516439D01*
Y465656D01*
X4241440Y533367D02*
X4275295D01*
X4292223Y516439D01*
Y465656D01*
X4241440D01*
X4224512Y482583D01*
X4241440Y499511D01*
X4292223D01*
X4326079Y533367D02*
Y465656D01*
Y499511D01*
X4343007Y516439D01*
X4359935Y533367D01*
X4376862D01*
X4461502Y431800D02*
X4478430D01*
X4495358Y448728D01*
Y533367D01*
X4444574D01*
X4427646Y516439D01*
Y482583D01*
X4444574Y465656D01*
X4495358D01*
X4579997D02*
X4546141D01*
X4529213Y482583D01*
Y516439D01*
X4546141Y533367D01*
X4579997D01*
X4596925Y516439D01*
Y499511D01*
X4529213D01*
X4630781Y533367D02*
Y465656D01*
Y499511D01*
X4647709Y516439D01*
X4664636Y533367D01*
X4681564D01*
X3420511Y5910508D02*
X3352800D01*
Y5859724D01*
X3386656Y5876652D01*
X3403583D01*
X3420511Y5859724D01*
Y5825868D01*
X3403583Y5808941D01*
X3369728D01*
X3352800Y5825868D01*
X3454367Y5893580D02*
X3471295Y5910508D01*
X3505151D01*
X3522079Y5893580D01*
Y5825868D01*
X3505151Y5808941D01*
X3471295D01*
X3454367Y5825868D01*
Y5893580D01*
X3555934D02*
X3572862Y5910508D01*
X3606718D01*
X3623646Y5893580D01*
Y5825868D01*
X3606718Y5808941D01*
X3572862D01*
X3555934Y5825868D01*
Y5893580D01*
X3352800Y5626100D02*
Y5693811D01*
X3369728D01*
X3386656Y5676883D01*
Y5626100D01*
Y5676883D01*
X3403583Y5693811D01*
X3420511Y5676883D01*
Y5626100D01*
X3454367D02*
Y5693811D01*
X3488223Y5727667D01*
X3522079Y5693811D01*
Y5626100D01*
Y5676883D01*
X3454367D01*
X2743217Y1104900D02*
Y1172611D01*
X2709361Y1138756D02*
X2777072D01*
X2743217Y1308034D02*
Y1375746D01*
Y3860800D02*
Y3928511D01*
X2709361Y3894656D02*
X2777072D01*
X2743217Y4063934D02*
Y4131646D01*
X3890411Y6112895D02*
X3873483Y6129823D01*
X3839628D01*
X3822700Y6112895D01*
Y6045183D01*
X3839628Y6028256D01*
X3873483D01*
X3890411Y6045183D01*
X3924267Y6129823D02*
Y6028256D01*
Y6079039D01*
X3941195Y6095967D01*
X3975051D01*
X3991979Y6079039D01*
Y6028256D01*
X4042762Y6095967D02*
X4076618D01*
X4093546Y6079039D01*
Y6028256D01*
X4042762D01*
X4025834Y6045183D01*
X4042762Y6062111D01*
X4093546D01*
X4127402Y6095967D02*
Y6028256D01*
Y6062111D01*
X4144330Y6079039D01*
X4161257Y6095967D01*
X4178185D01*
X4262825Y5994400D02*
X4279752D01*
X4296680Y6011328D01*
Y6095967D01*
X4245897D01*
X4228969Y6079039D01*
Y6045183D01*
X4245897Y6028256D01*
X4296680D01*
X4330536D02*
X4364392D01*
X4347464D01*
Y6095967D01*
X4330536D01*
X4415176Y6028256D02*
Y6095967D01*
X4465959D01*
X4482887Y6079039D01*
Y6028256D01*
X4550598Y5994400D02*
X4567526D01*
X4584454Y6011328D01*
Y6095967D01*
X4533671D01*
X4516743Y6079039D01*
Y6045183D01*
X4533671Y6028256D01*
X4584454D01*
X4754011Y5397467D02*
X4720156Y5380539D01*
X4686300Y5346683D01*
Y5312828D01*
X4703228Y5295900D01*
X4737083D01*
X4754011Y5312828D01*
Y5329756D01*
X4737083Y5346683D01*
X4686300D01*
X4889434Y5397467D02*
Y5329756D01*
X4923290Y5295900D01*
X4957146Y5329756D01*
Y5397467D01*
X5092569Y5295900D02*
Y5397467D01*
X5126425Y5363611D01*
X5160280Y5397467D01*
Y5295900D01*
X5211064Y5363611D02*
X5244920D01*
X5261847Y5346683D01*
Y5295900D01*
X5211064D01*
X5194136Y5312828D01*
X5211064Y5329756D01*
X5261847D01*
X5295703Y5363611D02*
X5363415Y5295900D01*
X5329559Y5329756D01*
X5363415Y5363611D01*
X5295703Y5295900D01*
X3517941Y5168925D02*
Y5321275D01*
X3594117D01*
X3619508Y5295883D01*
Y5245100D01*
X3594117Y5219708D01*
X3517941D01*
X3568725D02*
X3619508Y5168925D01*
X3670292Y5295883D02*
X3695684Y5321275D01*
X3746467D01*
X3771859Y5295883D01*
Y5270492D01*
X3746467Y5245100D01*
X3721075D01*
X3746467D01*
X3771859Y5219708D01*
Y5194317D01*
X3746467Y5168925D01*
X3695684D01*
X3670292Y5194317D01*
X1079500Y3048000D02*
Y3149567D01*
X1130283D01*
X1147211Y3132639D01*
Y3098783D01*
X1130283Y3081856D01*
X1079500D01*
X1181067Y3048000D02*
Y3149567D01*
X1231851D01*
X1248779Y3132639D01*
Y3098783D01*
X1231851Y3081856D01*
X1181067D01*
X1214923D02*
X1248779Y3048000D01*
X1333418Y3149567D02*
X1299562D01*
X1282634Y3132639D01*
Y3064928D01*
X1299562Y3048000D01*
X1333418D01*
X1350346Y3064928D01*
Y3132639D01*
X1333418Y3149567D01*
X1451913Y3132639D02*
X1434985Y3149567D01*
X1401130D01*
X1384202Y3132639D01*
Y3064928D01*
X1401130Y3048000D01*
X1434985D01*
X1451913Y3064928D01*
Y3098783D01*
X1418057D01*
X825483Y5626100D02*
X774700Y5676883D01*
X825483Y5727667D01*
X876267Y5676883D02*
X943979D01*
X1147113Y5710739D02*
X1130185Y5727667D01*
X1096330D01*
X1079402Y5710739D01*
Y5693811D01*
X1096330Y5676883D01*
X1130185D01*
X1147113Y5659956D01*
Y5643028D01*
X1130185Y5626100D01*
X1096330D01*
X1079402Y5643028D01*
X1180969Y5727667D02*
Y5710739D01*
X1214825Y5676883D01*
X1248680Y5710739D01*
Y5727667D01*
X1214825Y5676883D02*
Y5626100D01*
X1350247Y5710739D02*
X1333320Y5727667D01*
X1299464D01*
X1282536Y5710739D01*
Y5693811D01*
X1299464Y5676883D01*
X1333320D01*
X1350247Y5659956D01*
Y5643028D01*
X1333320Y5626100D01*
X1299464D01*
X1282536Y5643028D01*
X1536454Y5727667D02*
X1502598D01*
X1485671Y5710739D01*
Y5643028D01*
X1502598Y5626100D01*
X1536454D01*
X1553382Y5643028D01*
Y5710739D01*
X1536454Y5727667D01*
X1587238D02*
Y5643028D01*
X1604166Y5626100D01*
X1638021D01*
X1654949Y5643028D01*
Y5727667D01*
X1688805D02*
X1756516D01*
X1722661D01*
Y5626100D01*
X698500Y736567D02*
Y635000D01*
X749283D01*
X766211Y651928D01*
Y668856D01*
X749283Y685783D01*
X698500D01*
X749283D01*
X766211Y702711D01*
Y719639D01*
X749283Y736567D01*
X698500D01*
X800067Y635000D02*
Y702711D01*
X833923Y736567D01*
X867779Y702711D01*
Y635000D01*
Y685783D01*
X800067D01*
X901634Y736567D02*
X969346D01*
X935490D01*
Y635000D01*
X1003202Y736567D02*
X1070913D01*
X1037057D01*
Y635000D01*
X1206336Y736567D02*
X1240192D01*
X1223264D01*
Y635000D01*
X1206336D01*
X1240192D01*
X1290976D02*
Y736567D01*
X1358687Y635000D01*
Y736567D01*
X1494110Y685783D02*
X1561821D01*
X1595677Y635000D02*
X1646461Y685783D01*
X1595677Y736567D01*
X4025867Y3116539D02*
X4000475Y3141931D01*
X3949692D01*
X3924300Y3116539D01*
Y3014972D01*
X3949692Y2989580D01*
X4000475D01*
X4025867Y3014972D01*
X4076651Y2989580D02*
X4127434D01*
X4102043D01*
Y3141931D01*
X4076651Y3116539D01*
X2451141Y5181625D02*
Y5333975D01*
X2527317D01*
X2552708Y5308583D01*
Y5257800D01*
X2527317Y5232408D01*
X2451141D01*
X2501925D02*
X2552708Y5181625D01*
X2679667D02*
Y5333975D01*
X2603492Y5257800D01*
X2705059D01*
X3670333Y1663675D02*
Y1511325D01*
X3746508D01*
X3771900Y1536717D01*
Y1638283D01*
X3746508Y1663675D01*
X3670333D01*
X3822684Y1511325D02*
X3873467D01*
X3848076D01*
Y1663675D01*
X3822684Y1638283D01*
X2895608Y2412983D02*
X2870217Y2438375D01*
X2819433D01*
X2794041Y2412983D01*
Y2311417D01*
X2819433Y2286025D01*
X2870217D01*
X2895608Y2311417D01*
X3047959Y2286025D02*
X2946392D01*
X3047959Y2387592D01*
Y2412983D01*
X3022567Y2438375D01*
X2971784D01*
X2946392Y2412983D01*
X4343490Y5918175D02*
Y5765825D01*
X4445058D01*
X4597408Y5918175D02*
X4495841D01*
Y5765825D01*
X4597408D01*
X4495841Y5842000D02*
X4546625D01*
X4648192Y5918175D02*
Y5765825D01*
X4724367D01*
X4749759Y5791217D01*
Y5892783D01*
X4724367Y5918175D01*
X4648192D01*
X4902110Y5765825D02*
X4800543D01*
X4902110Y5867392D01*
Y5892783D01*
X4876718Y5918175D01*
X4825934D01*
X4800543Y5892783D01*
X4368882Y5664175D02*
Y5511825D01*
X4470450D01*
X4622800Y5664175D02*
X4521233D01*
Y5511825D01*
X4622800D01*
X4521233Y5588000D02*
X4572017D01*
X4673584Y5664175D02*
Y5511825D01*
X4749759D01*
X4775151Y5537217D01*
Y5638783D01*
X4749759Y5664175D01*
X4673584D01*
X4825934Y5511825D02*
X4876718D01*
X4851326D01*
Y5664175D01*
X4825934Y5638783D01*
X635041Y3327425D02*
Y3479775D01*
X711217D01*
X736608Y3454383D01*
Y3403600D01*
X711217Y3378208D01*
X635041D01*
X685825D02*
X736608Y3327425D01*
X888959D02*
X787392D01*
X888959Y3428992D01*
Y3454383D01*
X863567Y3479775D01*
X812784D01*
X787392Y3454383D01*
X2006567Y736551D02*
X1955783D01*
X1981175D01*
Y609592D01*
X1955783Y584200D01*
X1930392D01*
X1905000Y609592D01*
X2057351Y711159D02*
X2082743Y736551D01*
X2133526D01*
X2158918Y711159D01*
Y685767D01*
X2133526Y660375D01*
X2108134D01*
X2133526D01*
X2158918Y634983D01*
Y609592D01*
X2133526Y584200D01*
X2082743D01*
X2057351Y609592D01*
X5664208Y2412975D02*
X5613425D01*
X5638817D01*
Y2286017D01*
X5613425Y2260625D01*
X5588033D01*
X5562641Y2286017D01*
X5816559Y2260625D02*
X5714992D01*
X5816559Y2362192D01*
Y2387583D01*
X5791167Y2412975D01*
X5740384D01*
X5714992Y2387583D01*
X3644941Y2133575D02*
Y1981225D01*
X3721117D01*
X3746508Y2006617D01*
Y2108183D01*
X3721117Y2133575D01*
X3644941D01*
X3898859Y1981225D02*
X3797292D01*
X3898859Y2082792D01*
Y2108183D01*
X3873467Y2133575D01*
X3822684D01*
X3797292Y2108183D01*
X2819433Y2832075D02*
Y2705117D01*
X2844825Y2679725D01*
X2895608D01*
X2921000Y2705117D01*
Y2832075D01*
X2971784Y2679725D02*
X3022567D01*
X2997176D01*
Y2832075D01*
X2971784Y2806683D01*
X2514608Y1904975D02*
X2463825D01*
X2489217D01*
Y1778017D01*
X2463825Y1752625D01*
X2438433D01*
X2413041Y1778017D01*
X2666959Y1904975D02*
X2565392D01*
Y1828800D01*
X2616175Y1854192D01*
X2641567D01*
X2666959Y1828800D01*
Y1778017D01*
X2641567Y1752625D01*
X2590784D01*
X2565392Y1778017D01*
X2082800Y3479775D02*
X2032017D01*
X2057408D01*
Y3352817D01*
X2032017Y3327425D01*
X2006625D01*
X1981233Y3352817D01*
X2133584Y3327425D02*
X2184367D01*
X2158976D01*
Y3479775D01*
X2133584Y3454383D01*
X2997212Y5600692D02*
X2984517Y5613388D01*
X2959125D01*
X2946429Y5600692D01*
Y5587996D01*
X2959125Y5575300D01*
X2984517D01*
X2997212Y5562604D01*
Y5549908D01*
X2984517Y5537212D01*
X2959125D01*
X2946429Y5549908D01*
X3073388Y5613388D02*
X3047996D01*
X3060692D01*
Y5549908D01*
X3047996Y5537212D01*
X3035300D01*
X3022604Y5549908D01*
X3098779Y5537212D02*
X3124171D01*
X3111475D01*
Y5613388D01*
X3098779Y5600692D01*
X4203708Y5448275D02*
X4152925D01*
X4178317D01*
Y5321317D01*
X4152925Y5295925D01*
X4127533D01*
X4102141Y5321317D01*
X4356059Y5448275D02*
X4305275Y5422883D01*
X4254492Y5372100D01*
Y5321317D01*
X4279884Y5295925D01*
X4330667D01*
X4356059Y5321317D01*
Y5346708D01*
X4330667Y5372100D01*
X4254492D01*
X3642360Y2984500D02*
Y3136851D01*
X3718535D01*
X3743927Y3111459D01*
Y3060675D01*
X3718535Y3035283D01*
X3642360D01*
X3693143D02*
X3743927Y2984500D01*
X3794711D02*
X3845494D01*
X3820103D01*
Y3136851D01*
X3794711Y3111459D01*
X2506947Y4597351D02*
X2456163D01*
X2481555D01*
Y4470392D01*
X2456163Y4445000D01*
X2430772D01*
X2405380Y4470392D01*
X2633906Y4445000D02*
Y4597351D01*
X2557731Y4521175D01*
X2659298D01*
D35*
X4039000Y1587500D02*
G03*
X4039000Y1587500I-12500J0D01*
G01*
X5393800Y1597200D02*
G03*
X5393800Y1597200I-12500J0D01*
G01*
X4039000Y2057400D02*
G03*
X4039000Y2057400I-12500J0D01*
G01*
X3129500Y2674000D02*
G03*
X3129500Y2674000I-12500J0D01*
G01*
D36*
X2895600Y1371600D02*
G03*
X2895600Y1371600I-38100J0D01*
G01*
Y4114800D02*
G03*
X2895600Y4114800I-38100J0D01*
G01*
D37*
X3940700Y2735700D02*
Y2750700D01*
X4085700Y2735700D02*
Y2750700D01*
X4321500Y1457500D02*
X4455000D01*
X4321500D02*
Y1717500D01*
X4455000D01*
X3064400Y2088000D02*
Y2103000D01*
X3209400Y2088000D02*
Y2103000D01*
X1595000Y3098800D02*
X1667500D01*
X872500D02*
X945000D01*
Y2973800D02*
Y3223800D01*
Y2973800D02*
X1595000D01*
Y3223800D01*
X945000D02*
X1595000D01*
X5907600Y1352700D02*
X5988792D01*
X5519270Y1352670D02*
X5640000D01*
X5519270D02*
Y1365800D01*
X5518798Y2088701D02*
Y2101731D01*
X5518800D02*
X5640000D01*
X5907600D02*
X5988800D01*
X5988792Y1352700D02*
Y2101700D01*
X4321500Y1927400D02*
X4455000D01*
X4321500D02*
Y2187400D01*
X4455000D01*
X3147000Y2779000D02*
Y2809000D01*
X3457000Y2779000D02*
Y2809000D01*
X3147000Y2779000D02*
X3457000D01*
X3147000Y2809000D02*
X3457000D01*
X5591600Y3855300D02*
X5831600D01*
X4443900Y4780700D02*
X5831600D01*
X4443900Y3855300D02*
X4881600D01*
X4443900Y4596500D02*
Y4780700D01*
Y3855300D02*
Y4191500D01*
X3638400Y2730700D02*
Y2755700D01*
X3778400Y2730700D02*
Y2755700D01*
D38*
X4013100Y5802000D02*
Y5882000D01*
Y5548000D02*
Y5628000D01*
D39*
X2679700Y990600D02*
Y1498600D01*
X2400300Y990600D02*
X2679700D01*
X2400300D02*
Y1498600D01*
X2679700D01*
Y3733800D02*
Y4241800D01*
X2400300Y3733800D02*
X2679700D01*
X2400300D02*
Y4241800D01*
X2679700D01*
D40*
X4360572Y1587498D02*
D03*
X4360553Y2057398D02*
D03*
%TF.MD5,d9dce8d4d2fdef6a92c7244a167ea62d*%
M02*
