%TF.GenerationSoftware,Altium Limited,Altium Designer,24.6.1 (21)*%
G04 Layer_Color=16711935*
%FSLAX45Y45*%
%MOMM*%
%TF.SameCoordinates,AC9FF34B-BC34-43DD-B331-A16B571A9E15*%
%TF.FilePolarity,Negative*%
%TF.FileFunction,Soldermask,Bot*%
%TF.Part,Single*%
G01*
G75*
%TA.AperFunction,ComponentPad*%
%ADD25C,1.25000*%
%ADD26C,1.52400*%
%ADD28R,1.25000X1.25000*%
%ADD32C,1.78000*%
%ADD49C,4.70320*%
%ADD50C,1.85320*%
%ADD51C,1.65320*%
%ADD52C,1.20320*%
%TA.AperFunction,ViaPad*%
%ADD53C,1.47320*%
D25*
X1770000Y3098800D02*
D03*
D26*
X2540000Y3860800D02*
D03*
Y1117600D02*
D03*
Y4114800D02*
D03*
Y1371600D02*
D03*
D28*
X770000Y3098800D02*
D03*
D32*
X5606600Y4318000D02*
D03*
D49*
X1371600Y3911600D02*
D03*
Y1219200D02*
D03*
Y5181600D02*
D03*
Y2489200D02*
D03*
D50*
X2133600Y2109200D02*
D03*
Y1600200D02*
D03*
Y4801600D02*
D03*
Y4292600D02*
D03*
D51*
X5503800Y1977200D02*
D03*
Y1477200D02*
D03*
D52*
X304800Y5943600D02*
D03*
X5588000D02*
D03*
X5638800Y406400D02*
D03*
X355600D02*
D03*
D53*
X4013200Y2425700D02*
D03*
X3327400Y4584700D02*
D03*
X2832100D02*
D03*
X3302000Y2425700D02*
D03*
X3136900Y1701800D02*
D03*
X4432300Y4876800D02*
D03*
X4203700D02*
D03*
X4216400Y5054600D02*
D03*
X4432300D02*
D03*
X4648200D02*
D03*
X5219700Y1854200D02*
D03*
%TF.MD5,83befb1104e06e28db0e274c5d8598fe*%
M02*
