%TF.GenerationSoftware,Altium Limited,Altium Designer,24.6.1 (21)*%
G04 Layer_Color=0*
%FSLAX45Y45*%
%MOMM*%
%TF.SameCoordinates,AC9FF34B-BC34-43DD-B331-A16B571A9E15*%
%TF.FilePolarity,Positive*%
%TF.FileFunction,Plated,1,2,PTH,Drill*%
%TF.Part,Single*%
G01*
G75*
%TA.AperFunction,ComponentDrill*%
%ADD56C,0.75000*%
%ADD57C,1.01600*%
%ADD58C,3.00000*%
%ADD59C,1.10000*%
%ADD60C,0.85000*%
%ADD61O,1.30000X0.60000*%
%ADD62C,3.20000*%
%TA.AperFunction,ViaDrill,NotFilled*%
%ADD63C,0.71120*%
D56*
X1770000Y3098800D02*
D03*
X770000D02*
D03*
D57*
X2540000Y3860800D02*
D03*
Y1117600D02*
D03*
Y4114800D02*
D03*
Y1371600D02*
D03*
D58*
X1371600Y3911600D02*
D03*
Y1219200D02*
D03*
Y5181600D02*
D03*
Y2489200D02*
D03*
D59*
X2133600Y2109200D02*
D03*
Y1600200D02*
D03*
Y4801600D02*
D03*
Y4292600D02*
D03*
D60*
X5503800Y1977200D02*
D03*
Y1477200D02*
D03*
D61*
X5773800Y2077200D02*
D03*
Y1377200D02*
D03*
D62*
X304800Y5943600D02*
D03*
X5588000D02*
D03*
X5638800Y406400D02*
D03*
X355600D02*
D03*
D63*
X4013200Y2425700D02*
D03*
X3327400Y4584700D02*
D03*
X2832100D02*
D03*
X3302000Y2425700D02*
D03*
X3136900Y1701800D02*
D03*
X4432300Y4876800D02*
D03*
X4203700D02*
D03*
X4216400Y5054600D02*
D03*
X4432300D02*
D03*
X4648200D02*
D03*
X5219700Y1854200D02*
D03*
%TF.MD5,a0f541102c441edcd51214fe06fded33*%
M02*
